# This file uses centimeters as units for non-parametric coordinates.

mtllib toblerone.mtl
g default
v -4.030107 -0.000000 0.458074
v 3.900620 -0.000000 0.458074
v -4.030107 0.742922 0.000000
v 3.900620 0.742922 0.000000
v -4.030107 0.000000 -0.458074
v 3.900620 0.000000 -0.458074
v 3.900620 0.000000 -0.458074
v 3.900620 -0.000000 0.458074
v 3.900620 0.742922 0.000000
v 4.050619 0.000000 -0.458074
v 4.050619 -0.000000 0.458074
v 4.050619 0.742922 0.000000
v -4.180105 -0.000000 0.458074
v -4.180105 0.000000 -0.458074
v -4.180105 0.742922 0.000000
v 4.050619 0.701569 -0.025498
v 3.900620 0.693417 -0.030524
vt 0.877068 0.081501
vt 0.941563 0.041747
vt 0.877073 0.001992
vt 0.877073 0.001992
vt 0.877068 0.081501
vt 0.941563 0.041747
vt 0.396380 0.077888
vt 0.472276 0.001992
vt 0.494560 0.095947
vt 0.495873 0.101485
vt 0.526915 0.001992
vt 0.602811 0.077888
vt 0.503318 0.101485
vt 0.820932 0.001992
vt 0.844529 0.101485
vt 0.844529 0.101485
vt 0.842957 0.094855
vt 0.820932 0.001992
vt 0.001360 0.979520
vt 0.001360 0.001992
vt 0.100853 0.001992
vt 0.100853 0.979520
vt 0.100853 0.998008
vt 0.001360 0.998008
vt 0.666442 0.101485
vt 0.666442 0.001992
vt 0.684931 0.001992
vt 0.684931 0.101485
vt 0.106667 0.979520
vt 0.106667 0.001992
vt 0.206160 0.001992
vt 0.206160 0.979520
vt 0.206160 0.998008
vt 0.106667 0.998008
vt 0.641067 0.008622
vt 0.641067 0.001992
vt 0.659556 0.001992
vt 0.659556 0.007530
vt 0.659556 0.101485
vt 0.641067 0.101485
vt 0.300806 0.001992
vt 0.308825 0.979519
vt 0.210317 0.979519
vt 0.202297 0.001992
vt 0.297519 0.998008
vt 0.221623 0.998008
vt 0.691674 0.101411
vt 0.691674 0.002080
vt 0.710162 0.002080
vt 0.710162 0.101411
vn 0.000000 0.524838 0.851202
vn 0.000000 0.524838 0.851202
vn 0.000000 0.524838 0.851202
vn 0.000000 0.524838 0.851202
vn 0.000000 0.524838 -0.851202
vn 0.000000 0.524838 -0.851202
vn 0.000000 0.524838 -0.851202
vn 0.000000 0.524838 -0.851202
vn 1.000000 0.000000 0.000000
vn 1.000000 0.000000 0.000000
vn 1.000000 0.000000 0.000000
vn 1.000000 0.000000 0.000000
vn -1.000000 0.000000 0.000000
vn -1.000000 0.000000 0.000000
vn -1.000000 0.000000 0.000000
vn 0.000000 -1.000000 0.000000
vn 0.000000 -1.000000 0.000000
vn 0.000000 -1.000000 0.000000
vn 0.000000 -1.000000 0.000000
vn 0.000000 0.000000 0.000000
vn 0.000000 0.000000 0.000000
vn 0.000000 0.000000 0.000000
vn 0.000000 0.000000 0.000000
vn 0.000000 0.000000 0.000000
vn 0.000000 0.000000 0.000000
vn 0.000000 0.000000 0.000000
vn 1.000000 0.000000 0.000000
vn 0.000000 0.000000 0.000000
vn 0.000000 0.000000 0.000000
vn 0.000000 0.000000 0.000000
vn 0.000000 0.000000 0.000000
vn 0.000000 0.000000 0.000000
vn 0.000000 -1.000000 0.000000
vn 0.000000 -1.000000 0.000000
vn 0.000000 -1.000000 0.000000
vn 0.000000 -1.000000 0.000000
vn -0.000000 0.524838 -0.851202
vn -0.000000 0.524838 -0.851202
vn -0.000000 0.524838 -0.851202
vn -0.000000 0.524838 -0.851202
vn -0.000000 0.524838 -0.851202
vn -0.000000 0.524838 -0.851202
vn 0.000000 0.524838 0.851202
vn 0.000000 0.524838 0.851202
vn 0.000000 0.524838 0.851202
vn 0.000000 0.524838 0.851202
vn 0.000000 -1.000000 0.000000
vn 0.000000 -1.000000 0.000000
vn 0.000000 0.524838 0.851202
vn 0.000000 0.524838 0.851202
vn 0.000000 0.524838 -0.851202
vn 0.000000 0.524838 -0.851202
s 1
g pCube1
usemtl aiStandardSurface4SG
f 1/19/1 2/20/2 4/21/3 3/22/4
s 2
f 3/29/5 4/30/6 6/31/7 5/32/8
s off
f 11/7/9 10/8/10 16/9/11 12/10/12
f 14/11/13 13/12/14 15/13/15
s 3
f 2/41/16 1/42/17 5/43/18 6/44/19
s off
f 2/1/20 6/3/21 7/4/22 8/5/23
f 6/14/24 4/15/25 9/16/26 17/17/27 7/18/28
f 4/2/29 2/1/30 8/5/31 9/6/32
f 8/47/33 7/48/34 10/49/35 11/50/36
f 17/35/37 9/36/38 12/37/39 16/38/40 10/39/41 7/40/42
f 9/25/43 8/26/44 11/27/45 12/28/46
s 3
f 5/43/18 1/42/17 13/45/47 14/46/48
s 1
f 1/19/1 3/22/4 15/23/49 13/24/50
s 2
f 3/29/5 5/32/8 14/33/51 15/34/52
